<?xml version="1.0" encoding="UTF-8" standalone="no"?>
<svg
   xmlns:dc="http://purl.org/dc/elements/1.1/"
   xmlns:cc="http://creativecommons.org/ns#"
   xmlns:rdf="http://www.w3.org/1999/02/22-rdf-syntax-ns#"
   xmlns:svg="http://www.w3.org/2000/svg"
   xmlns="http://www.w3.org/2000/svg"
   xmlns:sodipodi="http://sodipodi.sourceforge.net/DTD/sodipodi-0.dtd"
   xmlns:inkscape="http://www.inkscape.org/namespaces/inkscape"
   data-name="Layer 1"
   width="1013.02965"
   height="844.99456"
   viewBox="0 0 1013.02965 844.99456"
   version="1.1"
   id="svg1035"
   sodipodi:docname="ideia.svg"
   inkscape:version="0.92.5 (2060ec1f9f, 2020-04-08)">
  <metadata
     id="metadata1041">
    <rdf:RDF>
      <cc:Work
         rdf:about="">
        <dc:format>image/svg+xml</dc:format>
        <dc:type
           rdf:resource="http://purl.org/dc/dcmitype/StillImage" />
        <dc:title>new_ideas</dc:title>
      </cc:Work>
    </rdf:RDF>
  </metadata>
  <defs
     id="defs1039" />
  <sodipodi:namedview
     pagecolor="#ffffff"
     bordercolor="#666666"
     borderopacity="1"
     objecttolerance="10"
     gridtolerance="10"
     guidetolerance="10"
     inkscape:pageopacity="0"
     inkscape:pageshadow="2"
     inkscape:window-width="1360"
     inkscape:window-height="704"
     id="namedview1037"
     showgrid="false"
     inkscape:zoom="0.44016634"
     inkscape:cx="397.59478"
     inkscape:cy="324.59983"
     inkscape:window-x="0"
     inkscape:window-y="27"
     inkscape:window-maximized="1"
     inkscape:current-layer="svg1035" />
  <title
     id="title963">new_ideas</title>
  <g
     id="g1068"
     transform="matrix(1.3860275,0,0,1.3860275,-449.88876,10.562741)">
    <path
       transform="translate(-93.48517,-27.50272)"
       id="path965"
       d="m 1050.4839,297.81272 c 0,35.17 -8.33,64.12 -22.7799,88.92 a 177.67758,177.67758 0 0 1 -16.19,23.25 c -53.12001,64.97 -151.88001,100.53 -241.14001,158.13 -263.48,170.02 -292.02,-102.42 -280.12,-270.3 4.8,-67.74 31.18,-129.79 73.09,-177.3 a 278.22062,278.22062 0 0 1 28.45,-27.97 c 47.58,-40.52 109.05,-65.04 178.58,-65.04 119.29,0 221.16,71.95 261.55001,173.34 a 261.84957,261.84957 0 0 1 18.5599,96.97 z"
       inkscape:connector-curvature="0"
       style="fill:#00aaff" />
    <path
       id="path967"
       transform="translate(-93.48517,-27.50272)"
       d="m 830.054,88.4227 -266.71,32.09 a 278.22062,278.22062 0 0 1 28.45,-27.97 z"
       inkscape:connector-curvature="0"
       style="fill:#d0cde1" />
    <path
       id="path969"
       transform="translate(-93.48517,-27.50272)"
       d="m 1027.704,386.7327 a 177.67758,177.67758 0 0 1 -16.19,23.25 l -228.46,-27.48 z"
       inkscape:connector-curvature="0"
       style="fill:#d0cde1" />
    <path
       id="path971"
       transform="translate(-93.48517,-27.50272)"
       d="m 1041.2439,228.72269 -387.18994,-50.22 377.87004,22.34 a 260.439,260.439 0 0 1 9.3199,27.88 z"
       inkscape:connector-curvature="0"
       style="fill:#d0cde1" />
    <path
       id="path973"
       transform="translate(-93.48517,-27.50272)"
       d="m 516.51853,99.50486 c 0,0.69 -0.02,1.37 -0.08,2.04 a 27.99706,27.99706 0 1 1 -52.68,-15.11 25.73956,25.73956 0 0 1 2.06,-3.31 27.9889,27.9889 0 0 1 50.6,14.1 c 0.07,0.74997 0.1,1.50998 0.1,2.28 z"
       inkscape:connector-curvature="0"
       style="fill:#00aaff" />
    <path
       id="path975"
       transform="translate(-93.48517,-27.50272)"
       d="m 516.51853,99.50486 c 0,0.69 -0.02,1.37 -0.08,2.04 l -41.92,-5.04 41.9,0.72 c 0.07,0.74997 0.1,1.50998 0.1,2.28 z"
       inkscape:connector-curvature="0"
       style="fill:#d0cde1" />
    <path
       id="path977"
       transform="translate(-93.48517,-27.50272)"
       d="m 506.51853,113.61484 -38.78,4.67 a 28.05694,28.05694 0 0 1 -2.96,-3.95 z"
       inkscape:connector-curvature="0"
       style="fill:#d0cde1" />
    <path
       id="path979"
       transform="translate(-93.48517,-27.50272)"
       d="m 495.51853,82.61484 -31.76,3.82 a 25.73956,25.73956 0 0 1 2.06,-3.31 z"
       inkscape:connector-curvature="0"
       style="fill:#d0cde1" />
    <path
       id="path981"
       transform="translate(-93.48517,-27.50272)"
       d="m 900.25143,603.63055 c -0.32346,0.60949 -0.65991,1.20075 -1.027,1.76443 a 27.99706,27.99706 0 1 1 -39.45,-38.042 25.73938,25.73938 0 0 1 3.37127,-1.9581 27.98891,27.98891 0 0 1 38.08621,36.17477 c -0.28977,0.69535 -0.61952,1.38072 -0.98048,2.0609 z"
       inkscape:connector-curvature="0"
       style="fill:#00aaff" />
    <path
       id="path983"
       transform="translate(-93.48517,-27.50272)"
       d="m 900.25143,603.63055 c -0.32346,0.60949 -0.65991,1.20075 -1.027,1.76443 l -34.66603,-24.10292 36.67354,20.27763 c -0.2898,0.69531 -0.61955,1.38068 -0.98051,2.06086 z"
       inkscape:connector-curvature="0"
       style="fill:#d0cde1" />
    <path
       id="path985"
       transform="translate(-93.48517,-27.50272)"
       d="m 884.80385,611.4064 -36.44426,-14.054 a 28.05745,28.05745 0 0 1 -0.76292,-4.87668 z"
       inkscape:connector-curvature="0"
       style="fill:#d0cde1" />
    <path
       id="path987"
       transform="translate(-93.48517,-27.50272)"
       d="m 889.61936,578.867 -29.8449,-11.514 a 25.73938,25.73938 0 0 1 3.37127,-1.9581 z"
       inkscape:connector-curvature="0"
       style="fill:#d0cde1" />
    <path
       id="path989"
       transform="translate(-93.48517,-27.50272)"
       d="m 1098.5638,120.95526 c 0.4818,0.494 0.9422,0.99477 1.367,1.5163 a 27.99707,27.99707 0 1 1 -48.2635,25.96387 25.73851,25.73851 0 0 1 -0.8363,-3.80793 27.9889,27.9889 0 0 1 46.0693,-25.23471 c 0.5738,0.48809 1.1259,1.01121 1.6635,1.56247 z"
       inkscape:connector-curvature="0"
       style="fill:#00aaff" />
    <path
       id="path991"
       transform="translate(-93.48517,-27.50272)"
       d="m 1098.5638,120.95526 c 0.4818,0.494 0.9422,0.99477 1.367,1.5163 l -33.5295,25.66038 30.499,-28.73915 c 0.5738,0.48809 1.1259,1.01121 1.6635,1.56247 z"
       inkscape:connector-curvature="0"
       style="fill:#d0cde1" />
    <path
       id="path993"
       transform="translate(-93.48517,-27.50272)"
       d="m 1101.2564,138.03864 -24.5022,30.41946 a 28.0572,28.0572 0 0 1 -4.8769,-0.76118 z"
       inkscape:connector-curvature="0"
       style="fill:#d0cde1" />
    <path
       id="path995"
       transform="translate(-93.48517,-27.50272)"
       d="m 1071.7373,123.52584 -20.07,24.90959 a 25.73851,25.73851 0 0 1 -0.8363,-3.80793 z"
       inkscape:connector-curvature="0"
       style="fill:#d0cde1" />
    <path
       style="fill:#e8f032;fill-opacity:1"
       id="path1017"
       transform="translate(-93.48517,-27.50272)"
       d="m 545.869,350.68362 -0.46437,-0.0612 1.13287,4.30643 a 113.17562,113.17562 0 0 0 4.65,17.67685 l 33.22635,126.30782 a 21.40811,21.40811 0 0 0 17.43077,15.71007 l 67.75971,10.48261 a 21.408,21.408 0 0 0 22.1461,-11.05183 l 64.39386,-120.27626 a 113.00339,113.00339 0 0 0 5.50835,-10.28834 l 2.18627,-4.08367 -0.34094,-0.0449 a 113.84725,113.84725 0 1 0 -217.629,-28.67751 z"
       inkscape:connector-curvature="0" />
    <path
       style="fill:#ffffff;fill-opacity:1"
       id="path1019"
       transform="translate(-93.48517,-27.50272)"
       d="m 673.7627,533.3584 a 23.29759,23.29759 0 0 1 -3.56446,-0.27442 l -70.82763,-10.958 A 23.3712,23.3712 0 0 1 580.33643,504.9707 L 545.606,372.94482 a 119.05567,119.05567 0 0 1 -4.87793,-18.55615 l -0.87842,-5.77588 A 120.02561,120.02561 0 0 1 677.24219,214.74951 l -0.30664,1.97656 a 118.0685,118.0685 0 0 0 -134.93116,132.9126 l 0.6753,4.32031 a 118.2809,118.2809 0 0 0 4.83691,18.39991 l 34.7544,132.103 a 21.36975,21.36975 0 0 0 17.40527,15.6875 l 70.82764,10.958 a 21.407,21.407 0 0 0 22.11425,-11.03613 l 1.76368,0.94336 A 23.42072,23.42072 0 0 1 673.7627,533.3584 Z"
       inkscape:connector-curvature="0" />
    <rect
       style="fill:#ffffff;fill-opacity:0.94117647"
       id="rect1021"
       transform="rotate(-69.88499,604.97197,491.81983)"
       height="2.58676"
       width="125.31395"
       y="437.37967"
       x="608.73853" />
    <rect
       style="fill:#ffffff;fill-opacity:1"
       id="rect1023"
       transform="rotate(-2.51583,-50.169732,2546.1069)"
       height="125.31395"
       width="2.58676"
       y="368.5015"
       x="621.52777" />
    <path
       id="path1025"
       transform="translate(-93.48517,-27.50272)"
       d="m 667.77507,593.21348 -90.75733,-14.04041 a 2.587,2.587 0 0 1 0.791,-5.11309 l 90.75733,14.04041 a 2.587,2.587 0 1 1 -0.791,5.11309 z"
       inkscape:connector-curvature="0"
       style="fill:#3f3d56" />
    <path
       id="path1027"
       transform="translate(-93.48517,-27.50272)"
       d="m 670.10222,573.94052 -90.75733,-14.04041 a 2.587,2.587 0 1 1 0.791,-5.11309 l 90.75734,14.04041 a 2.587,2.587 0 1 1 -0.791,5.11309 z"
       inkscape:connector-curvature="0"
       style="fill:#3f3d56" />
    <path
       id="path1029"
       transform="translate(-93.48517,-27.50272)"
       d="M 672.42937,554.66756 581.672,540.62715 a 2.587,2.587 0 0 1 0.791,-5.11309 l 90.75733,14.04041 a 2.587,2.587 0 0 1 -0.791,5.11309 z"
       inkscape:connector-curvature="0"
       style="fill:#3f3d56" />
    <path
       id="path1031"
       transform="translate(-93.48517,-27.50272)"
       d="m 619.57535,604.42863 c 18.00222,2.785 34.1481,-4.99048 36.06278,-17.367 l -65.19188,-10.08536 c -1.91469,12.37651 11.12687,24.66737 29.1291,27.45236 z"
       inkscape:connector-curvature="0"
       style="fill:#3f3d56" />
    <path
       style="fill:#ffffff;fill-opacity:1"
       id="path1033"
       transform="translate(-93.48517,-27.50272)"
       d="m 652.19879,354.60221 c -3.87236,-0.59843 -7.07617,-3.65939 -8.83264,-5.711 -0.57595,-0.67259 -1.1365,-1.37029 -1.69874,-2.06952 -2.04551,-2.54625 -3.97681,-4.95084 -6.66642,-6.20478 -5.93686,-2.76991 -12.93209,1.099 -18.98864,5.24984 l -1.46325,-2.13343 c 6.65876,-4.56514 14.42362,-8.78213 21.54579,-5.46138 3.23493,1.50894 5.44871,4.26464 7.58906,6.92909 0.545,0.67867 1.089,1.35527 1.64693,2.00782 1.82636,2.13272 5.46883,5.58876 9.37174,4.79166 a 12.5979,12.5979 0 0 0 4.49545,-2.37986 24.07683,24.07683 0 0 1 3.18135,-2.00734 12.66906,12.66906 0 0 1 13.90684,1.96545 25.02449,25.02449 0 0 1 1.88717,1.99578 c 1.16372,1.32656 2.26229,2.5785 3.69247,3.03366 2.11435,0.676 4.349,-0.53253 6.71686,-1.80932 2.442,-1.31774 4.96637,-2.68088 7.8299,-2.34462 0.0929,0.0112 0.18677,0.0238 0.27915,0.0381 5.09561,0.78831 7.44484,6.42363 8.77412,10.62937 l -2.46725,0.7789 c -1.80618,-5.71683 -4.00582,-8.55982 -6.889,-8.87675 -2.05123,-0.24128 -4.114,0.87246 -6.298,2.05116 -2.7378,1.4784 -5.57148,3.00651 -8.7311,1.99813 -2.11483,-0.67292 -3.5069,-2.2585 -4.852,-3.79208 a 22.79725,22.79725 0 0 0 -1.68845,-1.79311 10.16528,10.16528 0 0 0 -11.01236,-1.55665 21.837,21.837 0 0 0 -2.83631,1.80124 14.69665,14.69665 0 0 1 -5.46961,2.80242 8.504,8.504 0 0 1 -3.02306,0.0673 z"
       inkscape:connector-curvature="0" />
  </g>
</svg>
