<?xml version="1.0" encoding="UTF-8" standalone="no"?>
<svg
   data-name="Layer 1"
   width="655.27173"
   height="556.25"
   viewBox="0 0 655.27173 556.25002"
   version="1.1"
   id="svg1877"
   sodipodi:docname="landing-page.svg"
   inkscape:version="1.1 (1:1.1+202105261518+ce6663b3b7)"
   xmlns:inkscape="http://www.inkscape.org/namespaces/inkscape"
   xmlns:sodipodi="http://sodipodi.sourceforge.net/DTD/sodipodi-0.dtd"
   xmlns="http://www.w3.org/2000/svg"
   xmlns:svg="http://www.w3.org/2000/svg">
  <defs
     id="defs1881" />
  <sodipodi:namedview
     id="namedview1879"
     pagecolor="#ffffff"
     bordercolor="#666666"
     borderopacity="1.0"
     inkscape:pageshadow="2"
     inkscape:pageopacity="0.0"
     inkscape:pagecheckerboard="0"
     showgrid="false"
     inkscape:zoom="0.69522331"
     inkscape:cx="555.93648"
     inkscape:cy="471.07166"
     inkscape:window-width="1920"
     inkscape:window-height="1016"
     inkscape:window-x="0"
     inkscape:window-y="27"
     inkscape:window-maximized="1"
     inkscape:current-layer="g2210" />
  <g
     id="g2210"
     transform="matrix(1.1846458,0,0,1.1846458,20.220279,21.353023)">
    <path
       d="m 691.25018,146.50039 h -501 a 9.01357,9.01357 0 0 0 -9,9 v 296 a 9.01357,9.01357 0 0 0 9,9 h 501 a 9.01357,9.01357 0 0 0 9,-9 v -296 a 9.01357,9.01357 0 0 0 -9,-9 z m 7,305 a 7.00778,7.00778 0 0 1 -7,7 h -501 a 7.00779,7.00779 0 0 1 -7,-7 v -296 a 7.00778,7.00778 0 0 1 7,-7 h 501 a 7.00778,7.00778 0 0 1 7,7 z"
       transform="translate(-181.25018,-146.50039)"
       fill="#3f3d56"
       id="path1829"
       style="stroke:#3f3d56;stroke-opacity:1;stroke-width:1.72034544;stroke-miterlimit:4;stroke-dasharray:none" />
    <rect
       x="1"
       y="34"
       width="517"
       height="2"
       fill="#3f3d56"
       id="rect1831"
       style="stroke:#3f3d56;stroke-opacity:1;stroke-width:1.33795266;stroke-miterlimit:4;stroke-dasharray:none" />
    <circle
       cx="18"
       cy="17.5"
       r="5"
       fill="#cccccc"
       id="circle1833" />
    <circle
       cx="33"
       cy="17.5"
       r="5"
       fill="#cccccc"
       id="circle1835" />
    <circle
       cx="48"
       cy="17.5"
       r="5"
       fill="#cccccc"
       id="circle1837" />
    <path
       d="m 561.75018,580.00039 h -242 a 8.50958,8.50958 0 0 1 -8.5,-8.5 v -271 a 8.50958,8.50958 0 0 1 8.5,-8.5 h 242 a 8.5095,8.5095 0 0 1 8.5,8.5 v 271 a 8.50951,8.50951 0 0 1 -8.5,8.5 z"
       transform="translate(-181.25018,-146.50039)"
       fill="#00aaff"
       id="path1839" />
    <rect
       x="43"
       y="71"
       width="433"
       height="21"
       rx="10.49999"
       fill="#cccccc"
       id="rect1849" />
    <path
       fill="currentColor"
       d="m 286.41052,280.17134 -44.57946,-13.04363 c -5.15967,-1.48598 -8.75079,-6.31542 -8.75079,-11.68147 0,-6.72819 5.4486,-12.1768 12.1768,-12.1768 h 27.36684 c 5.03583,0 9.98911,1.52726 14.11684,4.33412 2.51791,1.69237 5.90265,1.27959 8.04906,-0.82555 l 14.3645,-14.03428 c 2.93069,-2.84813 2.51792,-7.59502 -0.74299,-10.11293 -10.11294,-7.92524 -22.74378,-12.34191 -35.70485,-12.38319 v -19.8131 c 0,-3.6324 -2.97197,-6.60436 -6.60437,-6.60436 h -13.20873 c -3.6324,0 -6.60437,2.97196 -6.60437,6.60436 v 19.8131 h -1.03193 c -26.29363,0 -47.42761,22.57867 -44.99225,49.36764 1.73365,19.02882 16.26325,34.50781 34.59037,39.87386 l 42.30923,12.38319 c 5.15965,1.52725 8.75078,6.31542 8.75078,11.68146 0,6.7282 -5.4486,12.17681 -12.1768,12.17681 h -27.36684 c -5.03583,0 -9.98911,-1.52726 -14.11683,-4.33411 -2.51792,-1.69238 -5.90266,-1.2796 -8.04908,0.82554 l -14.3645,14.03428 c -2.93068,2.84813 -2.51791,7.59502 0.743,10.11294 10.11293,7.92523 22.74378,12.3419 35.70485,12.38318 v 19.8131 c 0,3.6324 2.97197,6.60436 6.60437,6.60436 h 13.20873 c 3.6324,0 6.60437,-2.97196 6.60437,-6.60436 v -19.89565 c 19.23521,-0.3715 37.27339,-11.80531 43.63009,-30.00859 8.87462,-25.42681 -6.02648,-51.51407 -29.92604,-58.48992 z"
       id="path2287"
       style="stroke-width:0.412773;fill:#ffffff;fill-opacity:1" />
  </g>
</svg>
