<?xml version="1.0" encoding="UTF-8" standalone="no"?>
<svg
   xmlns:dc="http://purl.org/dc/elements/1.1/"
   xmlns:cc="http://creativecommons.org/ns#"
   xmlns:rdf="http://www.w3.org/1999/02/22-rdf-syntax-ns#"
   xmlns:svg="http://www.w3.org/2000/svg"
   xmlns="http://www.w3.org/2000/svg"
   xmlns:sodipodi="http://sodipodi.sourceforge.net/DTD/sodipodi-0.dtd"
   xmlns:inkscape="http://www.inkscape.org/namespaces/inkscape"
   data-name="Layer 1"
   width="655.27173"
   height="556.25"
   viewBox="0 0 655.27173 556.25002"
   version="1.1"
   id="svg1877"
   sodipodi:docname="landing-page.svg"
   inkscape:version="0.92.5 (2060ec1f9f, 2020-04-08)">
  <metadata
     id="metadata1001">
    <rdf:RDF>
      <cc:Work
         rdf:about="">
        <dc:format>image/svg+xml</dc:format>
        <dc:type
           rdf:resource="http://purl.org/dc/dcmitype/StillImage" />
        <dc:title></dc:title>
      </cc:Work>
    </rdf:RDF>
  </metadata>
  <defs
     id="defs1881" />
  <sodipodi:namedview
     id="namedview1879"
     pagecolor="#ffffff"
     bordercolor="#666666"
     borderopacity="1.0"
     inkscape:pageshadow="2"
     inkscape:pageopacity="0.0"
     inkscape:pagecheckerboard="0"
     showgrid="false"
     inkscape:zoom="0.69522331"
     inkscape:cx="263.22478"
     inkscape:cy="240.92978"
     inkscape:window-width="1366"
     inkscape:window-height="704"
     inkscape:window-x="0"
     inkscape:window-y="27"
     inkscape:window-maximized="1"
     inkscape:current-layer="g2210" />
  <g
     id="g2210"
     transform="matrix(1.1846458,0,0,1.1846458,20.220279,21.353023)">
    <g
       id="g2313"
       transform="translate(0,-0.28196216)">
      <path
         style="fill:#3f3d56;stroke:#3f3d56;stroke-width:1.7203455;stroke-miterlimit:4;stroke-dasharray:none;stroke-opacity:1"
         id="path1829"
         transform="translate(-181.25018,-146.50039)"
         d="m 691.25018,146.50039 h -501 a 9.01357,9.01357 0 0 0 -9,9 v 296 a 9.01357,9.01357 0 0 0 9,9 h 501 a 9.01357,9.01357 0 0 0 9,-9 v -296 a 9.01357,9.01357 0 0 0 -9,-9 z m 7,305 a 7.00778,7.00778 0 0 1 -7,7 h -501 a 7.00779,7.00779 0 0 1 -7,-7 v -296 a 7.00778,7.00778 0 0 1 7,-7 h 501 a 7.00778,7.00778 0 0 1 7,7 z"
         inkscape:connector-curvature="0" />
      <rect
         style="fill:#3f3d56;stroke:#3f3d56;stroke-width:1.33795261;stroke-miterlimit:4;stroke-dasharray:none;stroke-opacity:1"
         id="rect1831"
         height="2"
         width="517"
         y="34"
         x="1" />
      <circle
         id="circle1833"
         r="5"
         cy="17.5"
         cx="18"
         style="fill:#cccccc" />
      <circle
         id="circle1835"
         r="5"
         cy="17.5"
         cx="33"
         style="fill:#cccccc" />
      <circle
         id="circle1837"
         r="5"
         cy="17.5"
         cx="48"
         style="fill:#cccccc" />
      <path
         id="path1839"
         transform="translate(-181.25018,-146.50039)"
         d="m 561.75018,580.00039 h -242 a 8.50958,8.50958 0 0 1 -8.5,-8.5 v -271 a 8.50958,8.50958 0 0 1 8.5,-8.5 h 242 a 8.5095,8.5095 0 0 1 8.5,8.5 v 271 a 8.50951,8.50951 0 0 1 -8.5,8.5 z"
         inkscape:connector-curvature="0"
         style="fill:#00aaff" />
      <rect
         id="rect1849"
         rx="10.49999"
         height="21"
         width="433"
         y="71"
         x="43"
         style="fill:#cccccc" />
      <path
         style="fill:#ffffff;fill-opacity:1;stroke-width:0.29584965"
         inkscape:connector-curvature="0"
         d="m 293.06689,262.85578 29.93999,-33.0967 c 5.9022,-5.9022 1.72185,-15.99659 -6.62703,-15.99659 H 174.21818 c -8.34888,0 -12.52924,10.09439 -6.62704,15.99659 L 221.63104,289.5 v 46.12888 c 0,3.72474 1.75439,7.23056 4.73359,9.46718 l 23.66502,17.75098 c 6.17142,4.62709 14.33983,2.06208 17.52021,-4.01468 -10.77188,-10.34586 -17.51725,-24.85137 -17.51725,-40.9308 0,-26.56433 18.35746,-48.86548 43.03428,-55.04578 z m 13.76885,7.70984 c -26.14423,0 -47.33594,21.19171 -47.33594,47.33594 0,26.14424 21.19171,47.33595 47.33594,47.33595 26.14423,0 47.33594,-21.19171 47.33594,-47.33595 0,-26.14423 -21.19171,-47.33594 -47.33594,-47.33594 z m 4.73359,70.96841 v 4.7691 c 0,1.30766 -1.05914,2.3668 -2.36679,2.3668 h -4.73359 c -1.30767,0 -2.3668,-1.05914 -2.3668,-2.3668 v -4.81938 c -3.34015,-0.1716 -6.58857,-1.33725 -9.28081,-3.3579 -1.15382,-0.86684 -1.21298,-2.5946 -0.16864,-3.59162 l 3.47624,-3.31648 c 0.8195,-0.78104 2.0384,-0.81653 2.99696,-0.21596 1.14494,0.71596 2.44371,1.10056 3.79279,1.10056 h 8.31633 c 1.92302,0 3.49102,-1.75143 3.49102,-3.90226 0,-1.7603 -1.06801,-3.31056 -2.59459,-3.76616 l -13.31323,-3.99398 c -5.49985,-1.65084 -9.34294,-6.9288 -9.34294,-12.83691 0,-7.25423 5.63593,-13.14756 12.62391,-13.33395 V 289.5 c 0,-1.30766 1.05914,-2.3668 2.36679,-2.3668 h 4.7336 c 1.30766,0 2.36679,1.05914 2.36679,2.3668 v 4.81939 c 3.34015,0.17159 6.58857,1.33428 9.28081,3.35789 1.15381,0.86684 1.21298,2.5946 0.16863,3.59162 l -3.47623,3.31647 c -0.8195,0.78105 -2.03841,0.81654 -2.99696,0.21597 -1.14493,-0.71891 -2.44371,-1.10056 -3.79279,-1.10056 h -8.31633 c -1.92303,0 -3.49103,1.75144 -3.49103,3.90226 0,1.7603 1.06802,3.31056 2.5946,3.76616 l 13.31323,3.99397 c 5.49985,1.65085 9.34294,6.9288 9.34294,12.83692 0,7.25719 -5.63298,13.14756 -12.62391,13.33394 z"
         id="path1594" />
    </g>
  </g>
</svg>
