<?xml version="1.0" encoding="UTF-8" standalone="no"?>
<svg
   xmlns:dc="http://purl.org/dc/elements/1.1/"
   xmlns:cc="http://creativecommons.org/ns#"
   xmlns:rdf="http://www.w3.org/1999/02/22-rdf-syntax-ns#"
   xmlns:svg="http://www.w3.org/2000/svg"
   xmlns="http://www.w3.org/2000/svg"
   xmlns:sodipodi="http://sodipodi.sourceforge.net/DTD/sodipodi-0.dtd"
   xmlns:inkscape="http://www.inkscape.org/namespaces/inkscape"
   data-name="Layer 1"
   width="655.27173"
   height="556.25"
   viewBox="0 0 655.27173 556.25002"
   version="1.1"
   id="svg1877"
   sodipodi:docname="portfolio.svg"
   inkscape:version="0.92.5 (2060ec1f9f, 2020-04-08)">
  <metadata
     id="metadata935">
    <rdf:RDF>
      <cc:Work
         rdf:about="">
        <dc:format>image/svg+xml</dc:format>
        <dc:type
           rdf:resource="http://purl.org/dc/dcmitype/StillImage" />
        <dc:title></dc:title>
      </cc:Work>
    </rdf:RDF>
  </metadata>
  <defs
     id="defs1881" />
  <sodipodi:namedview
     id="namedview1879"
     pagecolor="#ffffff"
     bordercolor="#666666"
     borderopacity="1.0"
     inkscape:pageshadow="2"
     inkscape:pageopacity="0.0"
     inkscape:pagecheckerboard="0"
     showgrid="false"
     inkscape:zoom="0.98319423"
     inkscape:cx="262.29237"
     inkscape:cy="342.10623"
     inkscape:window-width="1366"
     inkscape:window-height="704"
     inkscape:window-x="0"
     inkscape:window-y="27"
     inkscape:window-maximized="1"
     inkscape:current-layer="g2645"
     inkscape:document-units="in"
     showguides="true"
     inkscape:guide-bbox="true">
    <sodipodi:guide
       position="15.256396,552.28154"
       orientation="0,1"
       id="guide1629"
       inkscape:locked="false" />
  </sodipodi:namedview>
  <g
     id="g2210"
     transform="matrix(1.1846458,0,0,1.1846458,20.220279,21.353023)">
    <g
       id="g1517"
       transform="matrix(0.69210006,0,0,0.69210006,85.881601,84.065703)">
      <g
         id="g2645"
         transform="matrix(1.0132779,0,0,1.0132779,-3.330862,38.711874)">
        <path
           d="M 353.44369,-123.58424 H 148.27105 a 18.060973,18.060973 0 1 1 0,-36.12194 h 205.17264 a 18.060973,18.060973 0 0 1 0,36.12194 z"
           id="path1845"
           inkscape:connector-curvature="0"
           style="fill:#ffffff;stroke-width:1.44487774" />
        <g
           id="g1627"
           transform="translate(0,-36.998698)">
          <path
             style="fill:#3f3d56;stroke:#3f3d56;stroke-width:1.72035003;stroke-miterlimit:4;stroke-dasharray:none;stroke-opacity:1"
             id="path1829"
             transform="matrix(1.4448778,0,0,1.4448778,-385.97278,-333.13983)"
             d="m 691.25018,146.50039 h -501 a 9.01357,9.01357 0 0 0 -9,9 v 296 a 9.01357,9.01357 0 0 0 9,9 h 501 a 9.01357,9.01357 0 0 0 9,-9 v -296 a 9.01357,9.01357 0 0 0 -9,-9 z m 7,305 a 7.00778,7.00778 0 0 1 -7,7 h -501 a 7.00779,7.00779 0 0 1 -7,-7 v -296 a 7.00778,7.00778 0 0 1 7,-7 h 501 a 7.00778,7.00778 0 0 1 7,7 z"
             inkscape:connector-curvature="0" />
          <rect
             transform="matrix(1.4448778,0,0,1.4448778,-124.08842,-121.46467)"
             style="fill:#3f3d56;stroke:#3f3d56;stroke-width:1.33794999;stroke-miterlimit:4;stroke-dasharray:none;stroke-opacity:1"
             id="rect1831"
             height="2"
             width="517"
             y="34"
             x="1" />
          <circle
             transform="matrix(1.4448778,0,0,1.4448778,-124.08842,-121.46467)"
             id="circle1833"
             r="5"
             cy="17.5"
             cx="18"
             style="fill:#cccccc" />
          <circle
             transform="matrix(1.4448778,0,0,1.4448778,-124.08842,-121.46467)"
             id="circle1835"
             r="5"
             cy="17.5"
             cx="33"
             style="fill:#cccccc" />
          <circle
             transform="matrix(1.4448778,0,0,1.4448778,-124.08842,-121.46467)"
             id="circle1837"
             r="5"
             cy="17.5"
             cx="48"
             style="fill:#cccccc" />
          <path
             id="path1841"
             transform="matrix(1.4448778,0,0,1.4448778,-385.97278,-333.13983)"
             d="m 511.75018,431.00039 h -142 a 12.5,12.5 0 0 1 0,-25 h 142 a 12.5,12.5 0 0 1 0,25 z"
             inkscape:connector-curvature="0"
             style="fill:#ffffff" />
          <path
             id="path1843"
             transform="matrix(1.4448778,0,0,1.4448778,-385.97278,-333.13983)"
             d="m 511.75018,477.50039 h -142 a 12.5,12.5 0 0 1 0,-25 h 142 a 12.5,12.5 0 0 1 0,25 z"
             inkscape:connector-curvature="0"
             style="fill:#ffffff" />
          <path
             id="path1847"
             transform="matrix(1.4448778,0,0,1.4448778,-385.97278,-333.13983)"
             d="m 468.25018,369.50039 h -55 a 12.5,12.5 0 0 1 0,-25 h 55 a 12.5,12.5 0 0 1 0,25 z"
             inkscape:connector-curvature="0"
             style="fill:#ffffff" />
          <rect
             transform="matrix(1.4448778,0,0,1.4448778,-124.08842,-121.46467)"
             style="fill:#cccccc;stroke-width:0.830639"
             id="rect1849"
             rx="8.7216988"
             height="17.443413"
             width="359.66656"
             y="8.7546644"
             x="82.826256" />
          <path
             inkscape:connector-curvature="0"
             style="fill:#00aaff;fill-opacity:1;fill-rule:evenodd;stroke-width:1.80146098"
             id="path1421"
             d="m 67.245838,105.64908 a 33.021626,33.021626 0 1 0 -38.181244,32.62206 v -23.07382 h -8.386611 v -9.54824 h 8.386611 v -7.276551 c 0,-8.274601 4.931139,-12.84896 12.473009,-12.84896 a 50.743948,50.743948 0 0 1 7.393016,0.645697 v 8.127143 h -4.166041 a 4.7747362,4.7747362 0 0 0 -5.382224,5.1596 v 6.194491 h 9.1576 l -1.46239,9.54825 h -7.695228 v 23.07532 A 33.030453,33.030453 0 0 0 67.245802,105.649 Z" />
          <path
             inkscape:connector-curvature="0"
             style="fill:#00aaff;fill-opacity:1;stroke-width:2.21027946"
             id="path1423"
             d="m 212.92442,29.64167 7.3782,-1.475627 a 69.18661,69.18661 0 0 1 -7.3782,7.3782 v 0 a 29.69716,29.69716 0 0 0 0,4.426903 c -14.16615,60.796364 -66.40376,33.939703 -66.40376,33.939703 19.03572,0.442675 20.65895,-7.3782 20.65895,-7.3782 -11.06731,-1.623207 -13.28075,-8.853827 -13.28075,-8.853827 a 4.5598065,4.5598065 0 0 0 5.90255,-1.475649 13.403378,13.403378 0 0 1 -10.32947,-14.756378 15.347098,15.347098 0 0 0 7.23062,2.803695 c -1.32807,-1.623207 -12.54294,-15.051539 -5.755,-21.98702 0,0 8.2636,14.7564 29.95548,16.084469 l 1.47562,-0.295139 a 11.584384,11.584384 0 0 1 -0.29513,-3.246436 15.494236,15.494236 0 0 1 15.49421,-15.494214 v 0 c 10.32948,0 12.54294,5.902551 12.54294,5.902551 l 7.3782,-4.426902 c -0.14743,4.4e-5 -0.88535,7.378244 -4.57446,8.853871 z" />
          <path
             inkscape:connector-curvature="0"
             style="fill:#00aaff;fill-opacity:1;stroke-width:1.65133083"
             id="path1425"
             d="M 346.30358,97.196486 H 323.02519 A 16.343502,16.343502 0 0 0 306.7293,113.49235 v 23.27841 a 16.343502,16.343502 0 0 0 16.29589,16.29588 h 23.27839 a 16.343534,16.343534 0 0 0 16.29584,-16.29588 V 113.49235 A 16.343534,16.343534 0 0 0 346.30358,97.196486 Z" />
          <path
             style="fill:#ffffff;stroke-width:1.65133083"
             inkscape:connector-curvature="0"
             id="path1427"
             d="m 349.79545,113.49235 a 3.4844236,3.4844236 0 1 1 0.0148,0 z" />
          <path
             style="fill:#ffffff;stroke-width:1.65133083"
             inkscape:connector-curvature="0"
             id="path1429"
             d="m 334.66439,115.81942 a 9.3121022,9.3121022 0 1 1 -9.31212,9.31209 9.3120857,9.3120857 0 0 1 9.31212,-9.31209 v 0 m 0,-4.65542 a 13.967534,13.967534 0 1 0 13.96748,13.96757 v 0 a 13.967551,13.967551 0 0 0 -13.96748,-13.96752 z" />
          <path
             inkscape:connector-curvature="0"
             style="fill:#00aaff;fill-opacity:1;stroke-width:1.49927509"
             id="path1431"
             d="m 449.8491,12.204016 a 27.570169,27.570169 0 0 0 -11.06408,52.822009 24.413805,24.413805 0 0 1 0.47995,-6.325846 c 0.52925,-2.239917 3.54445,-15.026964 3.54445,-15.026964 a 10.525526,10.525526 0 0 1 -0.88607,-4.356698 c 0,-4.0859 2.36298,-7.138049 5.31665,-7.138049 a 3.687617,3.687617 0 0 1 3.71671,4.135165 c 0,2.522951 -1.61226,6.288935 -2.43683,9.78415 a 4.2621542,4.2621542 0 0 0 4.35669,5.304345 c 5.21823,0 8.738,-6.707397 8.738,-14.657753 0,-6.042753 -4.07365,-10.559484 -11.47021,-10.559484 a 13.062734,13.062734 0 0 0 -13.57473,13.205495 7.9465027,7.9465027 0 0 0 1.82144,5.402832 1.3474885,1.3474885 0 0 1 0.39382,1.538392 c -0.13539,0.504611 -0.43077,1.722996 -0.56616,2.215283 a 0.94715203,0.94715203 0 0 1 -1.37839,0.689187 c -3.85213,-1.575288 -5.64894,-5.784323 -5.64894,-10.534851 0,-7.827325 6.6089,-17.217675 19.70366,-17.217675 10.52255,0 17.45145,7.618087 17.45145,15.78999 0,10.817945 -6.01818,18.891376 -14.87924,18.891376 a 7.91076,7.91076 0 0 1 -6.73194,-3.43367 c 0,0 -1.5999,6.35045 -1.94456,7.581175 a 22.913811,22.913811 0 0 1 -2.76916,5.907398 27.572568,27.572568 0 1 0 7.8273,-54.015777 z" />
          <path
             id="path1433"
             transform="translate(-374.18488,-152)"
             d="m 749.40329,353.236 a 12.13172,12.13172 0 0 0 -11.39215,-8.01013 H 488.19623 a 12.09949,12.09949 0 0 0 -12.10423,12.0948 v 191.71409 a 12.12137,12.12137 0 0 0 12.10419,12.10418 h 249.81495 a 12.12136,12.12136 0 0 0 12.10418,-12.10418 V 357.33 a 12.01158,12.01158 0 0 0 -0.71203,-4.094 z"
             inkscape:connector-curvature="0"
             style="fill:#ffffff" />
          <path
             style="fill:#cccccc;stroke:#3f3d56;stroke-width:2.48569012;stroke-miterlimit:4;stroke-dasharray:none;stroke-opacity:1"
             id="path1435"
             transform="translate(-374.18488,-152)"
             d="m 749.40329,353.236 a 12.13172,12.13172 0 0 0 -11.39215,-8.01013 H 488.19623 a 12.09949,12.09949 0 0 0 -12.10423,12.0948 v 191.71409 a 12.12137,12.12137 0 0 0 12.10419,12.10418 h 249.81495 a 12.12136,12.12136 0 0 0 12.10418,-12.10418 V 357.33 a 12.01158,12.01158 0 0 0 -0.71203,-4.094 z m -0.712,195.79877 a 10.69317,10.69317 0 0 1 -10.68017,10.68017 H 488.19623 A 10.69321,10.69321 0 0 1 477.51608,549.03477 V 357.33 a 10.69316,10.69316 0 0 1 10.68015,-10.68014 H 738.01114 A 10.69321,10.69321 0 0 1 748.69131,357.33 Z"
             inkscape:connector-curvature="0" />
          <path
             id="path1437"
             transform="translate(-374.18488,-152)"
             d="M 730.84848,371.02157 V 504.883 a 3.369,3.369 0 0 1 -3.3678,3.37018 h -227.2406 a 2.83844,2.83844 0 0 1 -0.483,-0.0375 3.367,3.367 0 0 1 -2.88718,-3.33258 V 371.02157 a 3.369,3.369 0 0 1 3.36789,-3.37012 H 727.4783 a 3.369,3.369 0 0 1 3.37018,3.36783 z"
             inkscape:connector-curvature="0"
             style="fill:#e6e6e6" />
          <circle
             style="fill:#2e5678;fill-opacity:1"
             id="circle1439"
             r="29.566681"
             cy="265.67624"
             cx="179.96574" />
          <path
             style="fill:#00aaff;fill-opacity:1"
             id="path1441"
             transform="translate(-374.18488,-152)"
             d="M 646.86841,508.78988 H 501.82315 a 2.95319,2.95319 0 0 1 -0.542,-0.043 L 569.88088,389.9223 a 4.80316,4.80316 0 0 1 8.361,0 l 46.039,79.74054 2.20563,3.81561 z"
             inkscape:connector-curvature="0" />
          <polygon
             id="polygon1443"
             style="opacity:0.2;isolation:isolate"
             points="250.097,317.663 252.302,321.478 272.684,356.79 223.162,356.79 247.472,321.478 249.222,318.935 " />
          <path
             style="fill:#00aaff;fill-opacity:1"
             id="path1445"
             transform="translate(-374.18488,-152)"
             d="M 727.62857,508.78988 H 602.17633 l 24.31018,-35.31146 1.74945,-2.54376 31.67834,-46.01752 c 2.07682,-3.016 7.073,-3.20377 9.51477,-0.56885 a 5.71736,5.71736 0 0 1 0.45618,0.56885 z"
             inkscape:connector-curvature="0" />
        </g>
      </g>
    </g>
  </g>
</svg>
