<?xml version="1.0" encoding="UTF-8" standalone="no"?>
<svg
   data-name="Layer 1"
   width="655.27173"
   height="556.25"
   viewBox="0 0 655.27173 556.25002"
   version="1.1"
   id="svg1877"
   sodipodi:docname="portfolio.svg"
   inkscape:version="1.1 (1:1.1+202105261518+ce6663b3b7)"
   xmlns:inkscape="http://www.inkscape.org/namespaces/inkscape"
   xmlns:sodipodi="http://sodipodi.sourceforge.net/DTD/sodipodi-0.dtd"
   xmlns="http://www.w3.org/2000/svg"
   xmlns:svg="http://www.w3.org/2000/svg">
  <defs
     id="defs1881" />
  <sodipodi:namedview
     id="namedview1879"
     pagecolor="#ffffff"
     bordercolor="#666666"
     borderopacity="1.0"
     inkscape:pageshadow="2"
     inkscape:pageopacity="0.0"
     inkscape:pagecheckerboard="0"
     showgrid="false"
     inkscape:zoom="0.98319423"
     inkscape:cx="303.60227"
     inkscape:cy="202.91006"
     inkscape:window-width="1920"
     inkscape:window-height="1016"
     inkscape:window-x="0"
     inkscape:window-y="27"
     inkscape:window-maximized="1"
     inkscape:current-layer="g2645" />
  <g
     id="g2210"
     transform="matrix(1.1846458,0,0,1.1846458,20.220279,21.353023)">
    <g
       id="g1517"
       transform="matrix(0.69210006,0,0,0.69210006,85.881601,84.065703)">
      <g
         id="g2645"
         transform="matrix(1.0132779,0,0,1.0132779,-3.330862,38.711874)">
        <path
           d="m 691.25018,146.50039 h -501 a 9.01357,9.01357 0 0 0 -9,9 v 296 a 9.01357,9.01357 0 0 0 9,9 h 501 a 9.01357,9.01357 0 0 0 9,-9 v -296 a 9.01357,9.01357 0 0 0 -9,-9 z m 7,305 a 7.00778,7.00778 0 0 1 -7,7 h -501 a 7.00779,7.00779 0 0 1 -7,-7 v -296 a 7.00778,7.00778 0 0 1 7,-7 h 501 a 7.00778,7.00778 0 0 1 7,7 z"
           transform="matrix(1.4448778,0,0,1.4448778,-385.97278,-333.13983)"
           fill="#3f3d56"
           id="path1829"
           style="stroke:#3f3d56;stroke-width:1.72035;stroke-miterlimit:4;stroke-dasharray:none;stroke-opacity:1" />
        <rect
           x="1"
           y="34"
           width="517"
           height="2"
           fill="#3f3d56"
           id="rect1831"
           style="stroke:#3f3d56;stroke-width:1.33795;stroke-miterlimit:4;stroke-dasharray:none;stroke-opacity:1"
           transform="matrix(1.4448778,0,0,1.4448778,-124.08842,-121.46467)" />
        <circle
           cx="18"
           cy="17.5"
           r="5"
           fill="#cccccc"
           id="circle1833"
           transform="matrix(1.4448778,0,0,1.4448778,-124.08842,-121.46467)" />
        <circle
           cx="33"
           cy="17.5"
           r="5"
           fill="#cccccc"
           id="circle1835"
           transform="matrix(1.4448778,0,0,1.4448778,-124.08842,-121.46467)" />
        <circle
           cx="48"
           cy="17.5"
           r="5"
           fill="#cccccc"
           id="circle1837"
           transform="matrix(1.4448778,0,0,1.4448778,-124.08842,-121.46467)" />
        <path
           d="m 511.75018,431.00039 h -142 a 12.5,12.5 0 0 1 0,-25 h 142 a 12.5,12.5 0 0 1 0,25 z"
           transform="matrix(1.4448778,0,0,1.4448778,-385.97278,-333.13983)"
           fill="#ffffff"
           id="path1841" />
        <path
           d="m 511.75018,477.50039 h -142 a 12.5,12.5 0 0 1 0,-25 h 142 a 12.5,12.5 0 0 1 0,25 z"
           transform="matrix(1.4448778,0,0,1.4448778,-385.97278,-333.13983)"
           fill="#ffffff"
           id="path1843" />
        <path
           d="m 511.75018,524.50039 h -142 a 12.5,12.5 0 1 1 0,-25 h 142 a 12.5,12.5 0 0 1 0,25 z"
           transform="matrix(1.4448778,0,0,1.4448778,-385.97278,-333.13983)"
           fill="#ffffff"
           id="path1845" />
        <path
           d="m 468.25018,369.50039 h -55 a 12.5,12.5 0 0 1 0,-25 h 55 a 12.5,12.5 0 0 1 0,25 z"
           transform="matrix(1.4448778,0,0,1.4448778,-385.97278,-333.13983)"
           fill="#ffffff"
           id="path1847" />
        <rect
           x="82.826256"
           y="8.7546644"
           width="359.66656"
           height="17.443413"
           rx="8.7216988"
           fill="#cccccc"
           id="rect1849"
           style="stroke-width:0.830639"
           transform="matrix(1.4448778,0,0,1.4448778,-124.08842,-121.46467)" />
        <path
           d="m 425.5153,251.53044 a 18.33047,18.33047 0 1 0 -21.1946,18.10867 v -12.80839 h -4.65545 v -5.30028 h 4.65545 v -4.03925 c 0,-4.59327 2.7373,-7.13252 6.92383,-7.13252 a 28.16822,28.16822 0 0 1 4.1039,0.35843 v 4.51142 h -2.31259 a 2.65048,2.65048 0 0 0 -2.9877,2.86412 v 3.43859 h 5.08343 l -0.81178,5.30028 h -4.27166 v 12.80923 a 18.33537,18.33537 0 0 0 15.46715,-18.11034 z"
           transform="translate(-374.18488,-152)"
           fill="#3f3d56"
           fill-rule="evenodd"
           id="path1421" />
        <path
           d="m 550.74869,175.98555 3.33813,-0.66762 a 31.3022,31.3022 0 0 1 -3.33813,3.33813 v 0 a 13.43593,13.43593 0 0 0 0,2.00287 c -6.40921,27.50619 -30.04315,15.35539 -30.04315,15.35539 8.61236,0.20028 9.34676,-3.33813 9.34676,-3.33813 -5.0072,-0.73439 -6.00863,-4.00575 -6.00863,-4.00575 a 2.063,2.063 0 0 0 2.6705,-0.66763 6.06411,6.06411 0 0 1 -4.67338,-6.67625 6.94351,6.94351 0 0 0 3.27136,1.26848 c -0.60086,-0.73439 -5.67482,-6.80979 -2.60374,-9.94762 0,0 3.73871,6.67626 13.5528,7.27712 l 0.66762,-0.13353 a 5.24114,5.24114 0 0 1 -0.13353,-1.46879 7.01008,7.01008 0 0 1 7.01007,-7.01007 v 0 c 4.67338,0 5.67482,2.6705 5.67482,2.6705 l 3.33813,-2.00287 c -0.0667,2e-5 -0.40056,3.33815 -2.06963,4.00577 z"
           transform="translate(-374.18488,-152)"
           fill="#3f3d56"
           id="path1423" />
        <path
           d="m 673.04843,234.50533 h -14.09675 a 9.89717,9.89717 0 0 0 -9.86834,9.86832 v 14.09677 a 9.89717,9.89717 0 0 0 9.86834,9.86832 h 14.09675 a 9.89719,9.89719 0 0 0 9.8683,-9.86832 v -14.09677 a 9.89719,9.89719 0 0 0 -9.8683,-9.86832 z"
           transform="translate(-374.18488,-152)"
           fill="#3f3d56"
           id="path1425" />
        <path
           d="m 675.163,244.37365 a 2.11007,2.11007 0 1 1 0.009,0 z"
           transform="translate(-374.18488,-152)"
           fill="#ffffff"
           id="path1427" />
        <path
           d="m 666.00005,245.78286 a 5.63915,5.63915 0 1 1 -5.63916,5.63915 5.63914,5.63914 0 0 1 5.63916,-5.63915 v 0 m 0,-2.81919 a 8.45835,8.45835 0 1 0 8.45832,8.45837 v 0 a 8.45836,8.45836 0 0 0 -8.45832,-8.45834 z"
           transform="translate(-374.18488,-152)"
           fill="#ffffff"
           id="path1429" />
        <path
           d="m 792.81676,173.99812 a 18.389,18.389 0 0 0 -7.37962,35.2317 16.28374,16.28374 0 0 1 0.32012,-4.21927 c 0.353,-1.494 2.36411,-10.02282 2.36411,-10.02282 a 7.02041,7.02041 0 0 1 -0.591,-2.90587 c 0,-2.72525 1.57608,-4.761 3.54615,-4.761 a 2.4596,2.4596 0 0 1 2.479,2.75811 c 0,1.68278 -1.07536,4.19465 -1.62534,6.52592 a 2.84281,2.84281 0 0 0 2.90587,3.53794 c 3.4805,0 5.82815,-4.47376 5.82815,-9.77656 0,-4.03045 -2.71708,-7.04306 -7.65051,-7.04306 a 8.7127,8.7127 0 0 0 -9.05419,8.80792 5.30023,5.30023 0 0 0 1.21488,3.60363 0.89876,0.89876 0 0 1 0.26267,1.02609 c -0.0903,0.33657 -0.28732,1.14922 -0.37762,1.47757 a 0.63174,0.63174 0 0 1 -0.91937,0.45968 c -2.56933,-1.0507 -3.76778,-3.85808 -3.76778,-7.02663 0,-5.22074 4.40806,-11.484 13.14212,-11.484 7.01843,0 11.63993,5.08118 11.63993,10.53175 0,7.21545 -4.01406,12.60034 -9.92429,12.60034 a 5.27639,5.27639 0 0 1 -4.49013,-2.29022 c 0,0 -1.06712,4.23568 -1.297,5.05656 a 15.28326,15.28326 0 0 1 -1.847,3.94017 18.3906,18.3906 0 1 0 5.22072,-36.02793 z"
           transform="translate(-374.18488,-152)"
           fill="#3f3d56"
           id="path1431" />
        <path
           d="m 749.40329,353.236 a 12.13172,12.13172 0 0 0 -11.39215,-8.01013 H 488.19623 a 12.09949,12.09949 0 0 0 -12.10423,12.0948 v 191.71409 a 12.12137,12.12137 0 0 0 12.10419,12.10418 h 249.81495 a 12.12136,12.12136 0 0 0 12.10418,-12.10418 V 357.33 a 12.01158,12.01158 0 0 0 -0.71203,-4.094 z"
           transform="translate(-374.18488,-152)"
           fill="#ffffff"
           id="path1433" />
        <path
           d="m 749.40329,353.236 a 12.13172,12.13172 0 0 0 -11.39215,-8.01013 H 488.19623 a 12.09949,12.09949 0 0 0 -12.10423,12.0948 v 191.71409 a 12.12137,12.12137 0 0 0 12.10419,12.10418 h 249.81495 a 12.12136,12.12136 0 0 0 12.10418,-12.10418 V 357.33 a 12.01158,12.01158 0 0 0 -0.71203,-4.094 z m -0.712,195.79877 a 10.69317,10.69317 0 0 1 -10.68017,10.68017 H 488.19623 A 10.69321,10.69321 0 0 1 477.51608,549.03477 V 357.33 a 10.69316,10.69316 0 0 1 10.68015,-10.68014 H 738.01114 A 10.69321,10.69321 0 0 1 748.69131,357.33 Z"
           transform="translate(-374.18488,-152)"
           fill="#cccccc"
           id="path1435"
           style="stroke:#3f3d56;stroke-width:2.48569;stroke-miterlimit:4;stroke-dasharray:none;stroke-opacity:1" />
        <path
           d="M 730.84848,371.02157 V 504.883 a 3.369,3.369 0 0 1 -3.3678,3.37018 h -227.2406 a 2.83844,2.83844 0 0 1 -0.483,-0.0375 3.367,3.367 0 0 1 -2.88718,-3.33258 V 371.02157 a 3.369,3.369 0 0 1 3.36789,-3.37012 H 727.4783 a 3.369,3.369 0 0 1 3.37018,3.36783 z"
           transform="translate(-374.18488,-152)"
           fill="#e6e6e6"
           id="path1437" />
        <circle
           cx="179.96574"
           cy="265.67624"
           r="29.566681"
           fill="#00aaff"
           id="circle1439" />
        <path
           d="M 646.86841,508.78988 H 501.82315 a 2.95319,2.95319 0 0 1 -0.542,-0.043 L 569.88088,389.9223 a 4.80316,4.80316 0 0 1 8.361,0 l 46.039,79.74054 2.20563,3.81561 z"
           transform="translate(-374.18488,-152)"
           fill="#3f3d56"
           id="path1441" />
        <polygon
           points="249.222,318.935 250.097,317.663 252.302,321.478 272.684,356.79 223.162,356.79 247.472,321.478 "
           opacity="0.2"
           style="isolation:isolate"
           id="polygon1443" />
        <path
           d="M 727.62857,508.78988 H 602.17633 l 24.31018,-35.31146 1.74945,-2.54376 31.67834,-46.01752 c 2.07682,-3.016 7.073,-3.20377 9.51477,-0.56885 a 5.71736,5.71736 0 0 1 0.45618,0.56885 z"
           transform="translate(-374.18488,-152)"
           fill="#3f3d56"
           id="path1445" />
        <path
           d="m 407.18488,284.42187 a 33,33 0 1 1 32.99987,-33 33.03734,33.03734 0 0 1 -32.99987,33 z m 0,-64 a 31,31 0 1 0 30.99987,31 31.0352,31.0352 0 0 0 -30.99987,-31 z"
           transform="translate(-374.18488,-152)"
           fill="#3f3d56"
           id="path1471"
           style="stroke:#3f3d56;stroke-opacity:1;stroke-width:2.45311667;stroke-miterlimit:4;stroke-dasharray:none" />
        <path
           d="m 537.39618,218 a 33,33 0 1 1 33,-33 33.03734,33.03734 0 0 1 -33,33 z m 0,-64 a 31,31 0 1 0 31,31 31.0352,31.0352 0 0 0 -31,-31 z"
           transform="translate(-374.18488,-152)"
           fill="#3f3d56"
           id="path1473"
           style="stroke:#3f3d56;stroke-opacity:1;stroke-width:2.45311667;stroke-miterlimit:4;stroke-dasharray:none" />
        <path
           d="m 665.99994,284.42187 a 33,33 0 1 1 33,-33 33.03734,33.03734 0 0 1 -33,33 z m 0,-64 a 31,31 0 1 0 31,31 31.0352,31.0352 0 0 0 -31,-31 z"
           transform="translate(-374.18488,-152)"
           fill="#3f3d56"
           id="path1475"
           style="stroke:#3f3d56;stroke-opacity:1;stroke-width:2.45311667;stroke-miterlimit:4;stroke-dasharray:none" />
        <path
           d="m 792.81512,225.39111 a 33,33 0 1 1 33,-33 33.03734,33.03734 0 0 1 -33,33 z m 0,-64 a 31,31 0 1 0 31,31 31.03521,31.03521 0 0 0 -31,-31 z"
           transform="translate(-374.18488,-152)"
           fill="#3f3d56"
           id="path1477"
           style="stroke:#3f3d56;stroke-opacity:1;stroke-width:2.45311667;stroke-miterlimit:4;stroke-dasharray:none" />
      </g>
    </g>
  </g>
</svg>
