<?xml version="1.0" encoding="UTF-8" standalone="no"?>
<svg
   xmlns:dc="http://purl.org/dc/elements/1.1/"
   xmlns:cc="http://creativecommons.org/ns#"
   xmlns:rdf="http://www.w3.org/1999/02/22-rdf-syntax-ns#"
   xmlns:svg="http://www.w3.org/2000/svg"
   xmlns="http://www.w3.org/2000/svg"
   xmlns:sodipodi="http://sodipodi.sourceforge.net/DTD/sodipodi-0.dtd"
   xmlns:inkscape="http://www.inkscape.org/namespaces/inkscape"
   data-name="Layer 1"
   width="655.27173"
   height="556.25"
   viewBox="0 0 655.27174 556.25"
   version="1.1"
   id="svg1095"
   sodipodi:docname="secure.svg"
   inkscape:version="0.92.5 (2060ec1f9f, 2020-04-08)">
  <metadata
     id="metadata1126">
    <rdf:RDF>
      <cc:Work
         rdf:about="">
        <dc:format>image/svg+xml</dc:format>
        <dc:type
           rdf:resource="http://purl.org/dc/dcmitype/StillImage" />
        <dc:title></dc:title>
      </cc:Work>
    </rdf:RDF>
  </metadata>
  <defs
     id="defs1099" />
  <sodipodi:namedview
     id="namedview1097"
     pagecolor="#ffffff"
     bordercolor="#666666"
     borderopacity="1.0"
     inkscape:pageshadow="2"
     inkscape:pageopacity="0.0"
     inkscape:pagecheckerboard="0"
     showgrid="false"
     inkscape:zoom="0.36130137"
     inkscape:cx="692.45933"
     inkscape:cy="626.62738"
     inkscape:window-width="1360"
     inkscape:window-height="704"
     inkscape:window-x="0"
     inkscape:window-y="27"
     inkscape:window-maximized="1"
     inkscape:current-layer="svg1095" />
  <g
     id="g1749"
     transform="matrix(1.3411349,0,0,1.3411349,70.858909,5.9252198)">
    <path
       d="m 383.03037,563.91909 a 75.18955,75.18955 0 0 1 -18.63955,-2.41115 l -1.19992,-0.332 -1.11309,-0.55768 c -40.242,-20.17656 -74.192,-46.827 -100.90712,-79.21137 A 299.86458,299.86458 0 0 1 210.22153,390.93675 348.20978,348.20978 0 0 1 190.53067,268.27222 c 0.017,-0.87611 0.0314,-1.55256 0.0314,-2.01861 0,-20.28912 11.262,-38.0913 28.69121,-45.35357 13.33947,-5.55813 134.45539,-55.30526 143.20632,-58.89963 16.48038,-8.25772 34.062,-1.36535 36.87554,-0.16006 6.31094,2.58025 118.2752,48.375 142.47062,59.89621 24.93578,11.87415 31.5889,33.20566 31.5889,43.93787 0,48.58822 -8.415,93.99778 -25.01129,134.9674 a 312.51684,312.51684 0 0 1 -56.16213,90.51087 c -45.84677,51.59381 -91.7057,69.8841 -92.14828,70.0453 a 50.11,50.11 0 0 1 -17.04258,2.72109 z m -10.78453,-26.71374 c 3.97586,0.89138 13.12949,2.22845 19.0957,0.052 7.57929,-2.76408 45.96243,-22.668 81.83036,-63.03189 49.55709,-55.769 74.70242,-125.87542 74.73919,-208.37177 -0.0885,-1.67134 -1.27542,-13.59188 -17.06153,-21.10867 C 507.12331,233.44669 390.746,185.86014 389.5732,185.38052 l -0.32154,-0.13631 c -2.43886,-1.022 -10.20055,-3.1747 -15.55082,-0.371 l -1.07124,0.49943 c -1.2972,0.53279 -129.86317,53.33754 -143.57481,59.05064 -9.59168,3.99651 -13.00917,13.89729 -13.00917,21.83037 0,0.57973 -0.015,1.423 -0.0362,2.51294 -1.09585,56.44716 11.96634,195.34603 156.23641,268.43876 z"
       transform="translate(-190.46477,-158)"
       id="path1061"
       inkscape:connector-curvature="0"
       style="fill:#3f3d56" />
    <path
       d="m 367.78865,173.58611 c 0,0 -129.7345,53.28381 -143.63465,59.07553 -13.90015,5.79172 -20.85019,19.69184 -20.85019,33.592 0,13.90016 -10.42506,195.27813 164.48484,282.97404 0,0 15.87478,4.39241 27.91882,0 12.04404,-4.39241 164.9454,-78.52642 164.9454,-283.55325 0,0 0,-20.85018 -24.32522,-32.43362 -24.32522,-11.58344 -141.93358,-59.6547 -141.93358,-59.6547 0,0 -14.44282,-6.37089 -26.60542,0 z"
       transform="translate(-190.46477,-158)"
       id="path1063"
       inkscape:connector-curvature="0"
       style="fill:#00aaff" />
    <path
       d="m 381.68877,215.28648 v 284.25025 c 0,0 -130.89284,-63.0066 -129.73449,-228.64973 z"
       transform="translate(-190.46477,-158)"
       id="path1065"
       inkscape:connector-curvature="0"
       style="opacity:0.1" />
    <polygon
       points="195.226,214.494 261.921,144.088 284.224,165.219 192.931,261.581 151.235,207.969 175.483,189.11 "
       id="polygon1067"
       style="fill:#ffffff" />
  </g>
</svg>
