<?xml version="1.0" encoding="UTF-8" standalone="no"?>
<svg
   data-name="Layer 1"
   width="873"
   height="528.67134"
   viewBox="0 0 873 528.67134"
   version="1.1"
   id="svg1054"
   sodipodi:docname="site-institucional.svg"
   inkscape:version="1.1 (1:1.1+202105261518+ce6663b3b7)"
   xmlns:inkscape="http://www.inkscape.org/namespaces/inkscape"
   xmlns:sodipodi="http://sodipodi.sourceforge.net/DTD/sodipodi-0.dtd"
   xmlns="http://www.w3.org/2000/svg"
   xmlns:svg="http://www.w3.org/2000/svg">
  <defs
     id="defs1058" />
  <sodipodi:namedview
     id="namedview1056"
     pagecolor="#ffffff"
     bordercolor="#666666"
     borderopacity="1.0"
     inkscape:pageshadow="2"
     inkscape:pageopacity="0.0"
     inkscape:pagecheckerboard="0"
     showgrid="false"
     inkscape:zoom="0.39729195"
     inkscape:cx="169.90024"
     inkscape:cy="237.86034"
     inkscape:window-width="1920"
     inkscape:window-height="1016"
     inkscape:window-x="0"
     inkscape:window-y="27"
     inkscape:window-maximized="1"
     inkscape:current-layer="svg1054" />
  <g
     id="g2589"
     transform="translate(-121.83443,26.499993)">
    <path
       d="M 1022.8886,185.66433 H 415.88857 a 8.72766,8.72766 0 0 0 -8.71972,8.72 v 411.31998 a 8.72766,8.72766 0 0 0 8.71972,8.72 h 607.00003 a 8.71242,8.71242 0 0 0 6.6303,-3.06 2.04507,2.04507 0 0 0 0.19,-0.24 8.16654,8.16654 0 0 0 1.25,-2.11005 8.50717,8.50717 0 0 0 0.6597,-3.31 v -411.3199 a 8.72953,8.72953 0 0 0 -8.73,-8.72003 z m 6.2402,420.04 a 6.17524,6.17524 0 0 1 -1.0303,3.42 6.44578,6.44578 0 0 1 -2.3598,2.12 6.1843,6.1843 0 0 1 -2.8501,0.69 H 415.88857 a 6.23758,6.23758 0 0 1 -6.23,-6.23 V 194.38436 a 6.23758,6.23758 0 0 1 6.23,-6.23 h 607.00003 a 6.23945,6.23945 0 0 1 6.2402,6.23 z"
       transform="translate(-163.5,-185.66433)"
       fill="#3f3d56"
       id="path958" />
    <rect
       x="244.91148"
       y="34.949211"
       width="621.95679"
       height="2.49281"
       fill="#3f3d56"
       id="rect960" />
    <circle
       cx="266.1004"
       cy="18.6961"
       r="7.4784398"
       fill="#3f3d56"
       id="circle962" />
    <circle
       cx="287.60092"
       cy="18.6961"
       r="7.4784398"
       fill="#3f3d56"
       id="circle964" />
    <circle
       cx="309.10141"
       cy="18.6961"
       r="7.4784398"
       fill="#3f3d56"
       id="circle966" />
    <path
       d="m 956.61417,401.33567 h -485 a 17.01916,17.01916 0 0 1 -17,-17 v -103 a 17.01917,17.01917 0 0 1 17,-17 h 485 a 17.01917,17.01917 0 0 1 17,17 v 103 a 17.01916,17.01916 0 0 1 -17,17 z m -485,-135 a 15.017,15.017 0 0 0 -15,15 v 103 a 15.017,15.017 0 0 0 15,15 h 485 a 15.017,15.017 0 0 0 15,-15 v -103 a 15.017,15.017 0 0 0 -15,-15 z"
       transform="translate(-163.5,-185.66433)"
       fill="#f2f2f2"
       id="path968" />
    <path
       d="m 578.61417,587.33567 h -107 a 17.01916,17.01916 0 0 1 -17,-17 v -76 a 17.01917,17.01917 0 0 1 17,-17 h 107 a 17.01917,17.01917 0 0 1 17,17 v 76 a 17.01916,17.01916 0 0 1 -17,17 z m -107,-108 a 15.017,15.017 0 0 0 -15,15 v 76 a 15.017,15.017 0 0 0 15,15 h 107 a 15.017,15.017 0 0 0 15,-15 v -76 a 15.017,15.017 0 0 0 -15,-15 z"
       transform="translate(-163.5,-185.66433)"
       fill="#f2f2f2"
       id="path970" />
    <path
       d="m 956.61417,587.33567 h -107 a 17.01916,17.01916 0 0 1 -17,-17 v -76 a 17.01917,17.01917 0 0 1 17,-17 h 107 a 17.01917,17.01917 0 0 1 17,17 v 76 a 17.01916,17.01916 0 0 1 -17,17 z m -107,-108 a 15.017,15.017 0 0 0 -15,15 v 76 a 15.017,15.017 0 0 0 15,15 h 107 a 15.017,15.017 0 0 0 15,-15 v -76 a 15.017,15.017 0 0 0 -15,-15 z"
       transform="translate(-163.5,-185.66433)"
       fill="#f2f2f2"
       id="path972" />
    <path
       d="m 775.61417,587.33567 h -107 a 17.01916,17.01916 0 0 1 -17,-17 v -76 a 17.01917,17.01917 0 0 1 17,-17 h 107 a 17.01917,17.01917 0 0 1 17,17 v 76 a 17.01916,17.01916 0 0 1 -17,17 z m -107,-108 a 15.017,15.017 0 0 0 -15,15 v 76 a 15.017,15.017 0 0 0 15,15 h 107 a 15.017,15.017 0 0 0 15,-15 v -76 a 15.017,15.017 0 0 0 -15,-15 z"
       transform="translate(-163.5,-185.66433)"
       fill="#f2f2f2"
       id="path974" />
    <rect
       x="715.47076"
       y="68.967712"
       width="1.9997"
       height="527.39703"
       transform="rotate(-76.25179,516.43747,343.99674)"
       fill="#f2f2f2"
       id="rect976" />
    <rect
       x="452.66318"
       y="331.83563"
       width="522.90198"
       height="2.0000899"
       transform="rotate(-13.91411,-128.40659,909.95484)"
       fill="#f2f2f2"
       id="rect978" />
    <path
       d="m 976.61426,435.83545 h -485 a 16.51867,16.51867 0 0 1 -16.5,-16.5 v -103 a 16.51866,16.51866 0 0 1 16.5,-16.5 h 485 a 16.519,16.519 0 0 1 16.5,16.5 v 103 a 16.519,16.519 0 0 1 -16.5,16.5 z"
       transform="translate(-163.5,-185.66433)"
       fill="#ffffff"
       id="path980" />
    <rect
       x="720.78333"
       y="451.35522"
       width="2.0000601"
       height="162.54779"
       transform="matrix(0.61507,-0.78848,0.78848,0.61507,-305.62597,588.47188)"
       fill="#f2f2f2"
       id="rect982" />
    <rect
       x="642.28271"
       y="532.23804"
       width="161.99326"
       height="1.99991"
       transform="rotate(-38.66636,376.93364,673.41457)"
       fill="#f2f2f2"
       id="rect984" />
    <rect
       x="523.78333"
       y="451.35522"
       width="2.0000601"
       height="162.54779"
       transform="matrix(0.61507,-0.78848,0.78848,0.61507,-381.45807,433.1421)"
       fill="#f2f2f2"
       id="rect986" />
    <rect
       x="445.28271"
       y="532.23804"
       width="161.99326"
       height="1.99991"
       transform="rotate(-38.66636,179.93363,673.41457)"
       fill="#f2f2f2"
       id="rect988" />
    <rect
       x="901.78333"
       y="451.35522"
       width="2.0000601"
       height="162.54779"
       transform="matrix(0.61507,-0.78848,0.78848,0.61507,-235.95283,731.18604)"
       fill="#f2f2f2"
       id="rect990" />
    <rect
       x="823.28271"
       y="532.23804"
       width="161.99326"
       height="1.99991"
       transform="rotate(-38.66636,557.93365,673.41457)"
       fill="#f2f2f2"
       id="rect992" />
    <path
       d="m 790.61417,659.83567 h -107 a 16.51867,16.51867 0 0 1 -16.5,-16.5 v -76 a 16.51868,16.51868 0 0 1 16.5,-16.5 h 107 a 16.51867,16.51867 0 0 1 16.5,16.5 v 76 a 16.51866,16.51866 0 0 1 -16.5,16.5 z"
       transform="translate(-163.5,-185.66433)"
       fill="#2e5678"
       id="path994" />
    <path
       d="m 846.5,661.33567 h -219 a 1,1 0 0 1 0,-2 h 219 a 1,1 0 0 1 0,2 z"
       transform="translate(-163.5,-185.66433)"
       fill="#cccccc"
       id="path996" />
    <path
       d="m 751.06693,599.83567 h -28 a 8,8 0 0 1 0,-16 h 28 a 8,8 0 0 1 0,16 z"
       transform="translate(-163.5,-185.66433)"
       fill="#ffffff"
       id="path1000" />
    <path
       d="m 767.61417,626.83567 h -61 a 8,8 0 0 1 0,-16 h 61 a 8,8 0 0 1 0,16 z"
       transform="translate(-163.5,-185.66433)"
       fill="#ffffff"
       id="path1002" />
    <path
       d="m 595.61417,601.83567 h -107 a 16.51867,16.51867 0 0 1 -16.5,-16.5 v -76 a 16.51868,16.51868 0 0 1 16.5,-16.5 h 107 a 16.51867,16.51867 0 0 1 16.5,16.5 v 76 a 16.51866,16.51866 0 0 1 -16.5,16.5 z"
       transform="translate(-163.5,-185.66433)"
       fill="#2e5678"
       id="path1004" />
    <path
       d="m 556.06693,541.83567 h -28 a 8,8 0 0 1 0,-16 h 28 a 8,8 0 0 1 0,16 z"
       transform="translate(-163.5,-185.66433)"
       fill="#ffffff"
       id="path1006" />
    <path
       d="m 572.61417,568.83567 h -61 a 8,8 0 1 1 0,-16 h 61 a 8,8 0 0 1 0,16 z"
       transform="translate(-163.5,-185.66433)"
       fill="#ffffff"
       id="path1008" />
    <path
       d="m 979.61417,630.83567 h -107 a 16.51867,16.51867 0 0 1 -16.5,-16.5 v -76 a 16.51868,16.51868 0 0 1 16.5,-16.5 h 107 a 16.51867,16.51867 0 0 1 16.5,16.5 v 76 a 16.51866,16.51866 0 0 1 -16.5,16.5 z"
       transform="translate(-163.5,-185.66433)"
       fill="#e6e6e6"
       id="path1010" />
    <path
       d="m 940.06693,570.83567 h -28 a 8,8 0 0 1 0,-16 h 28 a 8,8 0 0 1 0,16 z"
       transform="translate(-163.5,-185.66433)"
       fill="#ffffff"
       id="path1012" />
    <path
       d="m 956.61417,597.83567 h -61 a 8,8 0 0 1 0,-16 h 61 a 8,8 0 0 1 0,16 z"
       transform="translate(-163.5,-185.66433)"
       fill="#ffffff"
       id="path1014" />
    <path
       d="m 1035.5,632.33567 h -219 a 1,1 0 0 1 0,-2 h 219 a 1,1 0 0 1 0,2 z"
       transform="translate(-163.5,-185.66433)"
       fill="#cccccc"
       id="path1046" />
    <path
       d="m 842.88419,434.071 v 1.26468 H 629.184 v -1.3235 l 1.15039,-1.62749 67.75,-95.6471 a 3.3846,3.3846 0 0 1 5.48974,0 l 45.43018,64.13727 32.33984,-45.25486 a 3.38541,3.38541 0 0 1 5.48,0 l 54.91016,76.83336 z"
       transform="translate(-163.5,-185.66433)"
       fill="#2e5678"
       id="path1048" />
    <circle
       cx="465.24084"
       cy="159.89522"
       r="24.873329"
       fill="#2e5678"
       id="circle1050" />
    <path
       d="m 976.61417,436.33567 h -485 a 17.01916,17.01916 0 0 1 -17,-17 v -103 a 17.01917,17.01917 0 0 1 17,-17 h 485 a 17.01917,17.01917 0 0 1 17,17 v 103 a 17.01916,17.01916 0 0 1 -17,17 z m -485,-135 a 15.017,15.017 0 0 0 -15,15 v 103 a 15.017,15.017 0 0 0 15,15 h 485 a 15.017,15.017 0 0 0 15,-15 v -103 a 15.017,15.017 0 0 0 -15,-15 z"
       transform="translate(-163.5,-185.66433)"
       fill="#3f3d56"
       id="path1052" />
  </g>
</svg>
