<?xml version="1.0" encoding="UTF-8" standalone="no"?>
<svg
   xmlns:dc="http://purl.org/dc/elements/1.1/"
   xmlns:cc="http://creativecommons.org/ns#"
   xmlns:rdf="http://www.w3.org/1999/02/22-rdf-syntax-ns#"
   xmlns:svg="http://www.w3.org/2000/svg"
   xmlns="http://www.w3.org/2000/svg"
   xmlns:sodipodi="http://sodipodi.sourceforge.net/DTD/sodipodi-0.dtd"
   xmlns:inkscape="http://www.inkscape.org/namespaces/inkscape"
   data-name="Layer 1"
   width="655.27173"
   height="556.25"
   viewBox="0 0 655.27173 556.25"
   version="1.1"
   id="svg986"
   sodipodi:docname="site-institucional.svg"
   inkscape:version="0.92.5 (2060ec1f9f, 2020-04-08)">
  <metadata
     id="metadata2597">
    <rdf:RDF>
      <cc:Work
         rdf:about="">
        <dc:format>image/svg+xml</dc:format>
        <dc:type
           rdf:resource="http://purl.org/dc/dcmitype/StillImage" />
        <dc:title></dc:title>
      </cc:Work>
    </rdf:RDF>
  </metadata>
  <defs
     id="defs990" />
  <sodipodi:namedview
     id="namedview988"
     pagecolor="#ffffff"
     bordercolor="#666666"
     borderopacity="1.0"
     inkscape:pageshadow="2"
     inkscape:pageopacity="0.0"
     inkscape:pagecheckerboard="0"
     showgrid="false"
     inkscape:zoom="1.025861"
     inkscape:cx="176.66166"
     inkscape:cy="408.10811"
     inkscape:window-width="1366"
     inkscape:window-height="704"
     inkscape:window-x="0"
     inkscape:window-y="27"
     inkscape:window-maximized="1"
     inkscape:current-layer="g8163" />
  <g
     id="g1462"
     transform="translate(107.91074,49)">
    <g
       id="g8163"
       transform="matrix(1.1374555,0,0,1.1374555,-30.202422,-31.494491)">
      <path
         d="m 703.08435,171.875 h -422 a 8.72772,8.72772 0 0 0 -8.72022,8.72 v 411.32 a 8.72777,8.72777 0 0 0 8.72022,8.72 h 37 v -2.49 h -37 a 6.23726,6.23726 0 0 1 -6.23,-6.23 v -411.32 a 6.23724,6.23724 0 0 1 6.23,-6.23 h 422 a 6.23974,6.23974 0 0 1 6.24023,6.23 v 411.32 a 6.17925,6.17925 0 0 1 -1.03027,3.42 6.446,6.446 0 0 1 -2.35986,2.12 6.18583,6.18583 0 0 1 -2.8501,0.69 h -37 v 2.49 h 37 a 8.71218,8.71218 0 0 0 6.62988,-3.06 1.94636,1.94636 0 0 0 0.18994,-0.24 8.15272,8.15272 0 0 0 1.25,-2.11 8.49852,8.49852 0 0 0 0.66016,-3.31 v -411.32 a 8.7298,8.7298 0 0 0 -8.72998,-8.72 z"
         transform="translate(-272.36413,-171.875)"
         fill="#3f3d56"
         id="path950"
         style="stroke:#3f3d56;stroke-opacity:1" />
      <rect
         x="1.24228"
         y="34.95306"
         width="436.95676"
         height="2.49281"
         fill="#3f3d56"
         id="rect952"
         style="stroke:#3f3d56;stroke-opacity:1" />
      <circle
         cx="22.43119"
         cy="18.699949"
         r="7.4784398"
         fill="#3f3d56"
         id="circle954"
         style="fill:#cccccc;fill-opacity:1" />
      <circle
         cx="43.931702"
         cy="18.699949"
         r="7.4784398"
         fill="#3f3d56"
         id="circle956"
         style="fill:#cccccc;fill-opacity:1" />
      <circle
         cx="65.432198"
         cy="18.699949"
         r="7.4784398"
         fill="#3f3d56"
         id="circle958"
         style="fill:#cccccc;fill-opacity:1" />
      <path
         d="m 597.58862,264.5308 h -211 a 13,13 0 0 1 0,-26 h 211 a 13,13 0 0 1 0,26 z m -211,-24 a 11,11 0 0 0 0,22 h 211 a 11,11 0 0 0 0,-22 z"
         transform="translate(-272.36413,-171.875)"
         fill="#3f3d56"
         id="path960"
         style="stroke:#3f3d56;stroke-opacity:1" />
      <path
         d="m 651.0885,446.125 h -318 a 17.01917,17.01917 0 0 1 -17,-17 v -102 a 17.01917,17.01917 0 0 1 17,-17 h 318 a 17.01917,17.01917 0 0 1 17,17 v 102 a 17.01917,17.01917 0 0 1 -17,17 z m -318,-134 a 15.017,15.017 0 0 0 -15,15 v 102 a 15.017,15.017 0 0 0 15,15 h 318 a 15.017,15.017 0 0 0 15,-15 v -102 a 15.017,15.017 0 0 0 -15,-15 z"
         transform="translate(-272.36413,-171.875)"
         fill="#3f3d56"
         id="path962"
         style="stroke:#3f3d56;stroke-opacity:1" />
      <path
         d="m 533.78946,372.625 h -111 a 8,8 0 1 1 0,-16 h 111 a 8,8 0 0 1 0,16 z"
         transform="translate(-272.36413,-171.875)"
         fill="#00aaff"
         id="path964" />
      <path
         d="m 636.78946,399.625 h -214 a 8,8 0 1 1 0,-16 h 214 a 8,8 0 0 1 0,16 z"
         transform="translate(-272.36413,-171.875)"
         fill="#00aaff"
         id="path966" />
      <circle
         cx="97.023643"
         cy="206.25"
         r="30"
         fill="#00aaff"
         id="circle968" />
      <path
         d="m 636.7776,432.125 h -28 a 8,8 0 1 1 0,-16 h 28 a 8,8 0 0 1 0,16 z"
         transform="translate(-272.36413,-171.875)"
         fill="#ffffff"
         id="path970" />
      <path
         d="m 636.7776,432.125 h -28 a 8,8 0 1 1 0,-16 h 28 a 8,8 0 0 1 0,16 z"
         transform="translate(-272.36413,-171.875)"
         fill="#cccccc"
         id="path972" />
      <path
         d="m 651.08435,494.125 h -318 a 17.0241,17.0241 0 0 0 -17,17 v 102 a 17.0241,17.0241 0 0 0 17,17 h 318 a 17.01783,17.01783 0 0 0 17,-17 v -102 a 17.01783,17.01783 0 0 0 -17,-17 z m 15,119 a 15.012,15.012 0 0 1 -15,15 h -318 a 15.01828,15.01828 0 0 1 -15,-15 v -102 a 15.01828,15.01828 0 0 1 15,-15 h 318 a 15.012,15.012 0 0 1 15,15 z"
         transform="translate(-272.36413,-171.875)"
         fill="#3f3d56"
         id="path974"
         style="stroke:#3f3d56;stroke-opacity:1" />
      <path
         d="m 533.78946,556.625 h -111 a 8,8 0 1 1 0,-16 h 111 a 8,8 0 0 1 0,16 z"
         transform="translate(-272.36413,-171.875)"
         fill="#00aaff"
         id="path976" />
      <path
         d="m 636.78946,583.625 h -214 a 8,8 0 1 1 0,-16 h 214 a 8,8 0 0 1 0,16 z"
         transform="translate(-272.36413,-171.875)"
         fill="#00aaff"
         id="path978" />
      <circle
         cx="97.023643"
         cy="390.25"
         r="30"
         fill="#00aaff"
         id="circle980" />
      <path
         d="m 636.7776,616.125 h -28 a 8,8 0 1 1 0,-16 h 28 a 8,8 0 0 1 0,16 z"
         transform="translate(-272.36413,-171.875)"
         fill="#cccccc"
         id="path982" />
    </g>
  </g>
</svg>
